<svg xmlns="http://www.w3.org/2000/svg" width="600" height="900" viewBox="0 0 600 900">
<defs><radialGradient id="g"><stop offset="0" stop-color="#5b3568"/><stop offset="1" stop-color="#07060d"/></radialGradient><filter id="glow"><feGaussianBlur stdDeviation="5" result="b"/><feMerge><feMergeNode in="b"/><feMergeNode in="SourceGraphic"/></feMerge></filter></defs>
<rect width="600" height="900" rx="24" fill="#05040a"/>
<rect x="16" y="16" width="568" height="868" rx="18" fill="url(#g)" stroke="#e4c36b" stroke-width="4"/>
<rect x="33" y="33" width="534" height="834" rx="12" fill="none" stroke="#e4c36b" stroke-width="1.5" opacity=".7"/>
<g><circle cx="376" cy="645" r="1.0" fill="#f5e8c8" opacity="0.18"/><circle cx="483" cy="334" r="1.0" fill="#f5e8c8" opacity="0.27"/><circle cx="100" cy="733" r="1.0" fill="#f5e8c8" opacity="0.36"/><circle cx="207" cy="422" r="1.0" fill="#f5e8c8" opacity="0.45"/><circle cx="314" cy="111" r="1.0" fill="#f5e8c8" opacity="0.54"/><circle cx="421" cy="510" r="1.0" fill="#f5e8c8" opacity="0.18"/><circle cx="528" cy="199" r="1.0" fill="#f5e8c8" opacity="0.27"/><circle cx="145" cy="598" r="1.0" fill="#f5e8c8" opacity="0.36"/><circle cx="252" cy="287" r="1.0" fill="#f5e8c8" opacity="0.45"/><circle cx="359" cy="686" r="1.0" fill="#f5e8c8" opacity="0.54"/><circle cx="466" cy="375" r="1.0" fill="#f5e8c8" opacity="0.18"/><circle cx="83" cy="774" r="1.0" fill="#f5e8c8" opacity="0.27"/><circle cx="190" cy="463" r="1.0" fill="#f5e8c8" opacity="0.36"/><circle cx="297" cy="152" r="1.0" fill="#f5e8c8" opacity="0.45"/><circle cx="404" cy="551" r="1.0" fill="#f5e8c8" opacity="0.54"/><circle cx="511" cy="240" r="1.0" fill="#f5e8c8" opacity="0.18"/><circle cx="128" cy="639" r="1.0" fill="#f5e8c8" opacity="0.27"/><circle cx="235" cy="328" r="1.0" fill="#f5e8c8" opacity="0.36"/><circle cx="342" cy="727" r="1.0" fill="#f5e8c8" opacity="0.45"/><circle cx="449" cy="416" r="1.0" fill="#f5e8c8" opacity="0.54"/><circle cx="66" cy="105" r="1.0" fill="#f5e8c8" opacity="0.18"/><circle cx="173" cy="504" r="1.0" fill="#f5e8c8" opacity="0.27"/><circle cx="280" cy="193" r="1.0" fill="#f5e8c8" opacity="0.36"/><circle cx="387" cy="592" r="1.0" fill="#f5e8c8" opacity="0.45"/><circle cx="494" cy="281" r="1.0" fill="#f5e8c8" opacity="0.54"/><circle cx="111" cy="680" r="1.0" fill="#f5e8c8" opacity="0.18"/><circle cx="218" cy="369" r="1.0" fill="#f5e8c8" opacity="0.27"/><circle cx="325" cy="768" r="1.0" fill="#f5e8c8" opacity="0.36"/></g>
<g stroke="#e4c36b" stroke-width="1"><line x1="300" y1="400" x2="510.0" y2="400.0" opacity="0.08"/><line x1="300" y1="400" x2="502.8" y2="454.4" opacity="0.11"/><line x1="300" y1="400" x2="481.9" y2="505.0" opacity="0.14"/><line x1="300" y1="400" x2="448.5" y2="548.5" opacity="0.08"/><line x1="300" y1="400" x2="405.0" y2="581.9" opacity="0.11"/><line x1="300" y1="400" x2="354.4" y2="602.8" opacity="0.14"/><line x1="300" y1="400" x2="300.0" y2="610.0" opacity="0.08"/><line x1="300" y1="400" x2="245.6" y2="602.8" opacity="0.11"/><line x1="300" y1="400" x2="195.0" y2="581.9" opacity="0.14"/><line x1="300" y1="400" x2="151.5" y2="548.5" opacity="0.08"/><line x1="300" y1="400" x2="118.1" y2="505.0" opacity="0.11"/><line x1="300" y1="400" x2="97.2" y2="454.4" opacity="0.14"/><line x1="300" y1="400" x2="90.0" y2="400.0" opacity="0.08"/><line x1="300" y1="400" x2="97.2" y2="345.6" opacity="0.11"/><line x1="300" y1="400" x2="118.1" y2="295.0" opacity="0.14"/><line x1="300" y1="400" x2="151.5" y2="251.5" opacity="0.08"/><line x1="300" y1="400" x2="195.0" y2="218.1" opacity="0.11"/><line x1="300" y1="400" x2="245.6" y2="197.2" opacity="0.14"/><line x1="300" y1="400" x2="300.0" y2="190.0" opacity="0.08"/><line x1="300" y1="400" x2="354.4" y2="197.2" opacity="0.11"/><line x1="300" y1="400" x2="405.0" y2="218.1" opacity="0.14"/><line x1="300" y1="400" x2="448.5" y2="251.5" opacity="0.08"/><line x1="300" y1="400" x2="481.9" y2="295.0" opacity="0.11"/><line x1="300" y1="400" x2="502.8" y2="345.6" opacity="0.14"/></g>
<text x="300" y="77" text-anchor="middle" font-size="28" fill="#e4c36b" font-family="Georgia,serif">10</text>
<g filter="url(#glow)"><polygon points="300,190 430,610 120,350 480,350 170,610" fill="none" stroke="#e4c36b" stroke-width="3" opacity=".55"/>
        <circle cx="300" cy="400" r="120" fill="#090812" opacity=".62" stroke="#e4c36b" stroke-width="3"/>
        <text x="300" y="435" text-anchor="middle" font-size="108" fill="#e4c36b" font-family="serif">☸</text></g>
<path d="M78 735 Q300 690 522 735" fill="none" stroke="#e4c36b" stroke-width="2" opacity=".65"/>
<text x="300" y="790" text-anchor="middle" font-size="37" fill="#f2ead7" font-family="serif">運命の輪</text>
<text x="300" y="830" text-anchor="middle" font-size="19" letter-spacing="3" fill="#e4c36b" font-family="Georgia,serif">WHEEL OF FORTUNE</text>
<circle cx="70" cy="70" r="18" fill="none" stroke="#e4c36b"/><circle cx="530" cy="70" r="18" fill="none" stroke="#e4c36b"/><circle cx="70" cy="830" r="18" fill="none" stroke="#e4c36b"/><circle cx="530" cy="830" r="18" fill="none" stroke="#e4c36b"/>
</svg>