<svg xmlns="http://www.w3.org/2000/svg" width="600" height="900" viewBox="0 0 600 900">
<defs><radialGradient id="g"><stop offset="0" stop-color="#315764"/><stop offset="1" stop-color="#07060d"/></radialGradient><filter id="glow"><feGaussianBlur stdDeviation="5" result="b"/><feMerge><feMergeNode in="b"/><feMergeNode in="SourceGraphic"/></feMerge></filter></defs>
<rect width="600" height="900" rx="24" fill="#05040a"/>
<rect x="16" y="16" width="568" height="868" rx="18" fill="url(#g)" stroke="#d9c68f" stroke-width="4"/>
<rect x="33" y="33" width="534" height="834" rx="12" fill="none" stroke="#d9c68f" stroke-width="1.5" opacity=".7"/>
<g><circle cx="84" cy="95" r="1.0" fill="#f5e8c8" opacity="0.18"/><circle cx="257" cy="526" r="1.45" fill="#f5e8c8" opacity="0.27"/><circle cx="430" cy="247" r="1.9" fill="#f5e8c8" opacity="0.36"/><circle cx="113" cy="678" r="1.0" fill="#f5e8c8" opacity="0.45"/><circle cx="286" cy="399" r="1.45" fill="#f5e8c8" opacity="0.54"/><circle cx="459" cy="120" r="1.9" fill="#f5e8c8" opacity="0.18"/><circle cx="142" cy="551" r="1.0" fill="#f5e8c8" opacity="0.27"/><circle cx="315" cy="272" r="1.45" fill="#f5e8c8" opacity="0.36"/><circle cx="488" cy="703" r="1.9" fill="#f5e8c8" opacity="0.45"/><circle cx="171" cy="424" r="1.0" fill="#f5e8c8" opacity="0.54"/><circle cx="344" cy="145" r="1.45" fill="#f5e8c8" opacity="0.18"/><circle cx="517" cy="576" r="1.9" fill="#f5e8c8" opacity="0.27"/><circle cx="200" cy="297" r="1.0" fill="#f5e8c8" opacity="0.36"/><circle cx="373" cy="728" r="1.45" fill="#f5e8c8" opacity="0.45"/><circle cx="56" cy="449" r="1.9" fill="#f5e8c8" opacity="0.54"/><circle cx="229" cy="170" r="1.0" fill="#f5e8c8" opacity="0.18"/><circle cx="402" cy="601" r="1.45" fill="#f5e8c8" opacity="0.27"/><circle cx="85" cy="322" r="1.9" fill="#f5e8c8" opacity="0.36"/><circle cx="258" cy="753" r="1.0" fill="#f5e8c8" opacity="0.45"/><circle cx="431" cy="474" r="1.45" fill="#f5e8c8" opacity="0.54"/><circle cx="114" cy="195" r="1.9" fill="#f5e8c8" opacity="0.18"/><circle cx="287" cy="626" r="1.0" fill="#f5e8c8" opacity="0.27"/><circle cx="460" cy="347" r="1.45" fill="#f5e8c8" opacity="0.36"/><circle cx="143" cy="778" r="1.9" fill="#f5e8c8" opacity="0.45"/><circle cx="316" cy="499" r="1.0" fill="#f5e8c8" opacity="0.54"/><circle cx="489" cy="220" r="1.45" fill="#f5e8c8" opacity="0.18"/><circle cx="172" cy="651" r="1.9" fill="#f5e8c8" opacity="0.27"/><circle cx="345" cy="372" r="1.0" fill="#f5e8c8" opacity="0.36"/></g>
<g stroke="#d9c68f" stroke-width="1"><line x1="300" y1="400" x2="510.0" y2="400.0" opacity="0.08"/><line x1="300" y1="400" x2="502.8" y2="454.4" opacity="0.11"/><line x1="300" y1="400" x2="481.9" y2="505.0" opacity="0.14"/><line x1="300" y1="400" x2="448.5" y2="548.5" opacity="0.08"/><line x1="300" y1="400" x2="405.0" y2="581.9" opacity="0.11"/><line x1="300" y1="400" x2="354.4" y2="602.8" opacity="0.14"/><line x1="300" y1="400" x2="300.0" y2="610.0" opacity="0.08"/><line x1="300" y1="400" x2="245.6" y2="602.8" opacity="0.11"/><line x1="300" y1="400" x2="195.0" y2="581.9" opacity="0.14"/><line x1="300" y1="400" x2="151.5" y2="548.5" opacity="0.08"/><line x1="300" y1="400" x2="118.1" y2="505.0" opacity="0.11"/><line x1="300" y1="400" x2="97.2" y2="454.4" opacity="0.14"/><line x1="300" y1="400" x2="90.0" y2="400.0" opacity="0.08"/><line x1="300" y1="400" x2="97.2" y2="345.6" opacity="0.11"/><line x1="300" y1="400" x2="118.1" y2="295.0" opacity="0.14"/><line x1="300" y1="400" x2="151.5" y2="251.5" opacity="0.08"/><line x1="300" y1="400" x2="195.0" y2="218.1" opacity="0.11"/><line x1="300" y1="400" x2="245.6" y2="197.2" opacity="0.14"/><line x1="300" y1="400" x2="300.0" y2="190.0" opacity="0.08"/><line x1="300" y1="400" x2="354.4" y2="197.2" opacity="0.11"/><line x1="300" y1="400" x2="405.0" y2="218.1" opacity="0.14"/><line x1="300" y1="400" x2="448.5" y2="251.5" opacity="0.08"/><line x1="300" y1="400" x2="481.9" y2="295.0" opacity="0.11"/><line x1="300" y1="400" x2="502.8" y2="345.6" opacity="0.14"/></g>
<text x="300" y="77" text-anchor="middle" font-size="28" fill="#d9c68f" font-family="Georgia,serif">14</text>
<g filter="url(#glow)"><circle cx="300" cy="380" r="155" fill="none" stroke="#d9c68f" stroke-width="2" opacity=".68"/>
        <circle cx="300" cy="380" r="118" fill="#090812" opacity=".57" stroke="#d9c68f" stroke-width="3"/>
        <path d="M185 520 Q300 445 415 520 Q300 595 185 520Z" fill="none" stroke="#d9c68f" stroke-width="3" opacity=".75"/>
        <text x="300" y="410" text-anchor="middle" font-size="112" fill="#d9c68f" font-family="serif">⚗</text></g>
<path d="M78 735 Q300 690 522 735" fill="none" stroke="#d9c68f" stroke-width="2" opacity=".65"/>
<text x="300" y="790" text-anchor="middle" font-size="37" fill="#f2ead7" font-family="serif">節制</text>
<text x="300" y="830" text-anchor="middle" font-size="19" letter-spacing="3" fill="#d9c68f" font-family="Georgia,serif">TEMPERANCE</text>
<circle cx="70" cy="70" r="18" fill="none" stroke="#d9c68f"/><circle cx="530" cy="70" r="18" fill="none" stroke="#d9c68f"/><circle cx="70" cy="830" r="18" fill="none" stroke="#d9c68f"/><circle cx="530" cy="830" r="18" fill="none" stroke="#d9c68f"/>
</svg>