<svg xmlns="http://www.w3.org/2000/svg" width="600" height="900" viewBox="0 0 600 900"><defs><radialGradient id="b"><stop offset="0" stop-color="#342653"/><stop offset="1" stop-color="#080611"/></radialGradient><filter id="q"><feGaussianBlur stdDeviation="4" result="x"/><feMerge><feMergeNode in="x"/><feMergeNode in="SourceGraphic"/></feMerge></filter></defs><rect width="600" height="900" rx="24" fill="#05040a"/><rect x="16" y="16" width="568" height="868" rx="18" fill="url(#b)" stroke="#d9b66f" stroke-width="4"/><rect x="34" y="34" width="532" height="832" rx="12" fill="none" stroke="#9c7b41" stroke-width="2"/><g fill="none" stroke="#d9b66f" opacity=".8" filter="url(#q)"><circle cx="300" cy="450" r="170"/><circle cx="300" cy="450" r="110"/><path d="M300 210 L355 365 L520 365 L385 465 L435 630 L300 530 L165 630 L215 465 L80 365 L245 365Z"/><path d="M300 280 L470 570 M470 330 L130 570 M130 330 L470 570 M300 620 L130 330" opacity=".4"/></g><text x="300" y="465" text-anchor="middle" font-size="90" fill="#e3c57d" font-family="serif">✦</text><text x="300" y="760" text-anchor="middle" font-size="27" letter-spacing="5" fill="#d9b66f" font-family="Georgia,serif">REIGNITE TAROT</text></svg>